<svg aria-hidden="true" style="position: absolute; width: 0; height: 0; overflow: hidden;" version="1.1" xmlns="http://www.w3.org/2000/svg" xmlns:xlink="http://www.w3.org/1999/xlink">
<defs>
<symbol id="icon-Views" viewBox="0 0 40 32">
<title>Views</title>
<path d="M19.862 32c-10.968 0-18.759-9.931-19.862-15.448 1.103-5.517 8.894-15.448 19.862-15.448s18.759 9.931 19.862 15.448c-1.103 5.517-8.894 15.448-19.862 15.448zM19.862 4.414c-8.662 0-15.106 7.658-16.452 12.138 1.346 4.48 7.79 12.138 16.452 12.138s15.106-7.658 16.452-12.138c-1.346-4.48-7.79-12.138-16.452-12.138zM19.862 23.172c-3.652 0-6.621-2.968-6.621-6.621s2.968-6.621 6.621-6.621c3.652 0 6.621 2.968 6.621 6.621s-2.968 6.621-6.621 6.621zM19.862 13.241c-1.821 0-3.31 1.49-3.31 3.31s1.49 3.31 3.31 3.31c1.821 0 3.31-1.49 3.31-3.31s-1.49-3.31-3.31-3.31z"></path>
</symbol>
<symbol id="icon-Up" viewBox="0 0 32 32">
<title>Up</title>
<path d="M16.941 32c-8.32 0-15.059-6.739-15.059-15.059s6.739-15.059 15.059-15.059c8.32 0 15.059 6.739 15.059 15.059s-6.739 15.059-15.059 15.059zM16.941 4.706c-6.739 0-12.235 5.496-12.235 12.235s5.496 12.235 12.235 12.235c6.739 0 12.235-5.496 12.235-12.235s-5.496-12.235-12.235-12.235zM22.118 20.706c-0.414 0-0.772-0.188-1.035-0.452v0l-4.141-4.518-4.141 4.518c-0.264 0.264-0.621 0.452-1.035 0.452-0.772 0-1.412-0.64-1.412-1.412 0-0.376 0.151-0.696 0.376-0.96v0l5.176-5.647c0.264-0.282 0.64-0.452 1.035-0.452s0.772 0.169 1.035 0.452l5.176 5.647c0.226 0.264 0.376 0.584 0.376 0.96 0 0.772-0.64 1.412-1.412 1.412z"></path>
</symbol>
<symbol id="icon-Teams" viewBox="0 0 30 32">
<title>Teams</title>
<path d="M22.809 18.4c1.084-1.742 1.724-3.893 1.724-6.24 0-5.724-3.822-10.382-8.533-10.382s-8.533 4.658-8.533 10.382c0 2.347 0.64 4.498 1.724 6.24-4.409 2.080-7.413 6.116-7.413 10.773v0.942c0 1.031 0.853 1.884 1.902 1.884h24.64c1.049 0 1.902-0.853 1.902-1.884v-0.942c0-4.658-3.004-8.693-7.413-10.773zM16 4.604c3.076 0 5.689 3.467 5.689 7.556 0 4.107-2.613 7.556-5.689 7.556s-5.689-3.449-5.689-7.556c0-4.089 2.613-7.556 5.689-7.556zM4.622 29.173c0-3.751 2.649-6.987 6.471-8.516 1.387 1.191 3.076 1.902 4.907 1.902s3.52-0.711 4.907-1.902c3.822 1.529 6.471 4.764 6.471 8.516h-22.756z"></path>
</symbol>
<symbol id="icon-Stats" viewBox="0 0 46 32">
<title>Stats</title>
<path d="M43.269 14.034l-5.12-10.697c-0.297-0.617-0.96-1.051-1.76-1.051-0.914 0-1.669 0.594-1.874 1.394l-5.051 20.663-6.629-14.994c-0.297-0.64-0.983-1.097-1.783-1.097s-1.463 0.434-1.76 1.074l-6.034 13.097-3.269-6.080c-0.32-0.594-0.96-0.983-1.714-0.983-0.594 0-1.12 0.251-1.463 0.64l-6.377 7.131c-0.274 0.32-0.434 0.709-0.434 1.143 0 0.983 0.869 1.783 1.92 1.783 0.594 0 1.12-0.251 1.463-0.64l4.503-5.029 3.794 7.063c0.32 0.594 0.96 0.983 1.714 0.983 0.8 0 1.463-0.434 1.76-1.074l5.874-12.731 7.2 16.274c0.297 0.64 0.983 1.097 1.783 1.097 0.914 0 1.669-0.594 1.874-1.394l5.12-20.914 2.766 5.783c0.297 0.617 0.96 1.051 1.76 1.051 1.051 0 1.92-0.8 1.92-1.783 0-0.251-0.069-0.503-0.16-0.731z"></path>
</symbol>
<symbol id="icon-Sign-Out" viewBox="0 0 27 32">
<title>Sign-Out</title>
<path d="M24.242 32h-22.303c-1.067 0-1.939-0.873-1.939-1.939v-17.455c0-1.067 0.873-1.939 1.939-1.939h5.333c0.805 0 1.455 0.65 1.455 1.455s-0.65 1.455-1.455 1.455h-4.364v15.515h20.364v-15.515h-4.364c-0.805 0-1.455-0.65-1.455-1.455s0.65-1.455 1.455-1.455h5.333c1.067 0 1.939 0.873 1.939 1.939v17.455c0 1.067-0.873 1.939-1.939 1.939zM17.939 8.727c-0.398 0-0.766-0.165-1.028-0.427l-2.366-2.366v15.884c0 0.805-0.65 1.455-1.455 1.455s-1.455-0.65-1.455-1.455v-15.884l-2.366 2.366c-0.262 0.262-0.63 0.427-1.028 0.427-0.805 0-1.455-0.65-1.455-1.455 0-0.398 0.165-0.766 0.427-1.028l4.848-4.848c0.262-0.262 0.63-0.427 1.028-0.427s0.766 0.165 1.028 0.427l4.849 4.848c0.262 0.262 0.427 0.63 0.427 1.028 0 0.805-0.65 1.455-1.455 1.455z"></path>
</symbol>
<symbol id="icon-Settings" viewBox="0 0 30 32">
<title>Settings</title>
<path d="M28.235 18.824h-1.092c-0.32 1.976-1.092 3.784-2.221 5.327l0.885 0.866c0.358 0.376 0.546 0.847 0.546 1.336 0 0.471-0.188 0.96-0.546 1.336-0.376 0.358-0.847 0.546-1.336 0.546s-0.96-0.188-1.336-0.546l-0.866-0.885c-1.544 1.129-3.351 1.901-5.327 2.202v1.111c0 1.035-0.847 1.882-1.882 1.882s-1.882-0.847-1.882-1.882v-1.111c-1.976-0.301-3.784-1.073-5.327-2.202l-0.866 0.885c-0.376 0.358-0.847 0.546-1.336 0.546s-0.96-0.188-1.336-0.546c-0.358-0.376-0.546-0.847-0.546-1.336 0-0.471 0.188-0.96 0.546-1.336l0.885-0.866c-1.129-1.544-1.901-3.351-2.221-5.327h-1.092c-1.035 0-1.882-0.847-1.882-1.882s0.847-1.882 1.882-1.882h1.092c0.32-1.976 1.092-3.784 2.221-5.327l-0.885-0.866c-0.358-0.376-0.546-0.847-0.546-1.336s0.188-0.96 0.546-1.336c0.376-0.358 0.847-0.546 1.336-0.546s0.96 0.188 1.336 0.546l0.866 0.885c1.544-1.129 3.351-1.901 5.327-2.221v-1.092c0-1.035 0.847-1.882 1.882-1.882s1.882 0.847 1.882 1.882v1.092c1.976 0.32 3.784 1.092 5.327 2.221l0.866-0.885c0.376-0.358 0.847-0.546 1.336-0.546s0.96 0.188 1.336 0.546c0.358 0.376 0.546 0.847 0.546 1.336s-0.188 0.96-0.546 1.336l-0.885 0.866c1.129 1.544 1.901 3.351 2.221 5.327h1.092c1.035 0 1.882 0.847 1.882 1.882s-0.847 1.882-1.882 1.882zM15.059 7.529c-5.195 0-9.412 4.216-9.412 9.412s4.216 9.412 9.412 9.412c5.195 0 9.412-4.216 9.412-9.412s-4.216-9.412-9.412-9.412zM15.059 22.588c-3.125 0-5.647-2.522-5.647-5.647s2.522-5.647 5.647-5.647c3.125 0 5.647 2.522 5.647 5.647s-2.522 5.647-5.647 5.647zM15.059 14.118c-1.562 0-2.824 1.261-2.824 2.824s1.261 2.824 2.824 2.824c1.562 0 2.824-1.261 2.824-2.824s-1.261-2.824-2.824-2.824z"></path>
</symbol>
<symbol id="icon-Projects" viewBox="0 0 36 32">
<title>Projects</title>
<path d="M17.94 5.22l-3.2-3.22h-10.62c-1.16 0-2.12 0.96-2.12 2.14v25.72c0 1.18 0.96 2.14 2.12 2.14h29.76c1.16 0 2.12-0.96 2.12-2.14v-22.5c0-1.18-0.96-2.14-2.12-2.14h-15.94zM13.42 5.22l3.2 3.2h16.2v2.16h-27.64v-5.36h8.24zM5.18 28.78v-15h27.64v15h-27.64z"></path>
</symbol>
<symbol id="icon-Notifications" viewBox="0 0 28 32">
<title>Notifications</title>
<path d="M25.612 22.649c-1.884-1.6-3.224-5.867-3.224-10.868 0-3.793-2.465-7.004-5.89-8.178-0.225-1.375-1.422-2.418-2.868-2.418s-2.643 1.043-2.868 2.418c-3.425 1.173-5.89 4.385-5.89 8.178 0 5.001-1.339 9.268-3.224 10.868-1.043 0.901-1.647 2.204-1.647 3.567 0 1.6 1.304 2.892 2.916 2.892h7.799c0 1.6 1.304 2.892 2.916 2.892s2.916-1.292 2.916-2.892h7.799c1.612 0 2.916-1.292 2.916-2.892 0-1.363-0.604-2.667-1.647-3.567zM2.916 26.216c0-0.521 0.237-1.031 0.64-1.375 2.607-2.24 4.231-7.241 4.231-13.061 0-3.188 2.619-5.784 5.843-5.784s5.843 2.596 5.843 5.784c0 5.819 1.624 10.821 4.231 13.061 0.403 0.344 0.64 0.853 0.64 1.375h-21.428z"></path>
</symbol>
<symbol id="icon-No-changes" viewBox="0 0 32 32">
<title>No-changes</title>
<path d="M0 16.941c0-8.32 6.739-15.059 15.059-15.059s15.059 6.739 15.059 15.059c0 8.32-6.739 15.059-15.059 15.059s-15.059-6.739-15.059-15.059zM27.294 16.941c0-6.739-5.496-12.235-12.235-12.235s-12.235 5.496-12.235 12.235c0 6.739 5.496 12.235 12.235 12.235s12.235-5.496 12.235-12.235zM11.294 22.118c0-0.414 0.188-0.772 0.452-1.035v0l4.518-4.141-4.518-4.141c-0.264-0.264-0.452-0.621-0.452-1.035 0-0.772 0.64-1.412 1.412-1.412 0.376 0 0.696 0.151 0.96 0.376v0l5.647 5.176c0.282 0.264 0.452 0.64 0.452 1.035s-0.169 0.772-0.452 1.035l-5.647 5.176c-0.264 0.226-0.584 0.376-0.96 0.376-0.772 0-1.412-0.64-1.412-1.412z"></path>
</symbol>
<symbol id="icon-Feed" viewBox="0 0 30 32">
<title>Feed</title>
<path d="M28.235 1.882h-18.824c-1.035 0-1.882 0.847-1.882 1.882v5.647h-5.647c-1.035 0-1.882 0.847-1.882 1.882v18.824c0 1.035 0.847 1.882 1.882 1.882h18.824c1.035 0 1.882-0.847 1.882-1.882v-5.647h5.647c1.035 0 1.882-0.847 1.882-1.882v-18.824c0-1.035-0.847-1.882-1.882-1.882zM19.765 29.176h-16.941v-16.941h4.706v10.353c0 1.035 0.847 1.882 1.882 1.882h10.353v4.706zM27.294 21.647h-16.941v-16.941h16.941v16.941z"></path>
</symbol>
<symbol id="icon-Down" viewBox="0 0 28 32">
<title>Down</title>
<path d="M14.222 1.778c7.858 0 14.222 6.364 14.222 14.222s-6.364 14.222-14.222 14.222c-7.858 0-14.222-6.364-14.222-14.222s6.364-14.222 14.222-14.222zM14.222 27.556c6.364 0 11.556-5.191 11.556-11.556s-5.191-11.556-11.556-11.556c-6.364 0-11.556 5.191-11.556 11.556s5.191 11.556 11.556 11.556zM9.333 12.444c0.391 0 0.729 0.178 0.978 0.427v0l3.911 4.267 3.911-4.267c0.249-0.249 0.587-0.427 0.978-0.427 0.729 0 1.333 0.604 1.333 1.333 0 0.356-0.142 0.658-0.356 0.907v0l-4.889 5.333c-0.249 0.267-0.604 0.427-0.978 0.427s-0.729-0.16-0.978-0.427l-4.889-5.333c-0.213-0.249-0.356-0.551-0.356-0.907 0-0.729 0.604-1.333 1.333-1.333z"></path>
</symbol>
<symbol id="icon-Dashboard" viewBox="0 0 25 32">
<title>Dashboard</title>
<path d="M22.151 32h-21.191c-0.533 0-0.96-0.427-0.96-0.942v-24.551c0-1.564 1.298-2.844 2.898-2.844h2.88v-0.462c0-0.782 0.64-1.422 1.44-1.422s1.458 0.64 1.458 1.422v0.462h5.778v-0.462c0-0.782 0.64-1.422 1.44-1.422s1.44 0.64 1.44 1.422v0.462h2.898c1.582 0 2.88 1.28 2.88 2.844v24.551c0 0.516-0.427 0.942-0.96 0.942zM20.231 6.507h-2.898v1.884h-2.898v-1.884h-5.778v1.884h-2.88v-1.884h-2.88v3.769h17.333v-3.769zM20.231 13.102h-17.333v16.071h17.333v-16.071zM16.373 19.716h-9.636v-2.827h9.636v2.827zM16.373 25.387h-9.636v-2.827h9.636v2.827z"></path>
</symbol>
<symbol id="icon-Comments" viewBox="0 0 33 32">
<title>Comments</title>
<path d="M31.182 26.868h-16l-5.001 5.132h-0.996c-1.102 0-2.003-0.924-2.003-2.050v-3.081h-3.994c-1.102 0-2.003-0.924-2.003-2.062v-21.57c0-1.126 0.901-2.050 2.003-2.050h27.994c1.102 0 2.003 0.924 2.003 2.050v21.57c0 1.138-0.901 2.062-2.003 2.062zM30.187 4.267h-26.003v19.52h5.997v3.852l3.757-3.852h16.249v-19.52z"></path>
</symbol>
<symbol id="icon-chevron-small-down" viewBox="0 0 20 20">
<title>chevron-small-down</title>
<path d="M13.418 7.859c0.271-0.268 0.709-0.268 0.978 0s0.272 0.701 0 0.969l-3.908 3.83c-0.27 0.268-0.707 0.268-0.979 0l-3.908-3.83c-0.27-0.267-0.27-0.701 0-0.969s0.709-0.268 0.978 0l3.421 3.141 3.418-3.141z"></path>
</symbol>
</defs>
</svg>
