<!-- Generated by IcoMoon.io -->
<svg version="1.1" xmlns="http://www.w3.org/2000/svg" width="25" height="32" viewBox="0 0 25 32">
<title>Dashboard</title>
<path d="M22.151 32h-21.191c-0.533 0-0.96-0.427-0.96-0.942v-24.551c0-1.564 1.298-2.844 2.898-2.844h2.88v-0.462c0-0.782 0.64-1.422 1.44-1.422s1.458 0.64 1.458 1.422v0.462h5.778v-0.462c0-0.782 0.64-1.422 1.44-1.422s1.44 0.64 1.44 1.422v0.462h2.898c1.582 0 2.88 1.28 2.88 2.844v24.551c0 0.516-0.427 0.942-0.96 0.942zM20.231 6.507h-2.898v1.884h-2.898v-1.884h-5.778v1.884h-2.88v-1.884h-2.88v3.769h17.333v-3.769zM20.231 13.102h-17.333v16.071h17.333v-16.071zM16.373 19.716h-9.636v-2.827h9.636v2.827zM16.373 25.387h-9.636v-2.827h9.636v2.827z"></path>
</svg>
