<!-- Generated by IcoMoon.io -->
<svg version="1.1" xmlns="http://www.w3.org/2000/svg" width="28" height="32" viewBox="0 0 28 32">
<title>Down</title>
<path d="M14.222 1.778c7.858 0 14.222 6.364 14.222 14.222s-6.364 14.222-14.222 14.222c-7.858 0-14.222-6.364-14.222-14.222s6.364-14.222 14.222-14.222zM14.222 27.556c6.364 0 11.556-5.191 11.556-11.556s-5.191-11.556-11.556-11.556c-6.364 0-11.556 5.191-11.556 11.556s5.191 11.556 11.556 11.556zM9.333 12.444c0.391 0 0.729 0.178 0.978 0.427v0l3.911 4.267 3.911-4.267c0.249-0.249 0.587-0.427 0.978-0.427 0.729 0 1.333 0.604 1.333 1.333 0 0.356-0.142 0.658-0.356 0.907v0l-4.889 5.333c-0.249 0.267-0.604 0.427-0.978 0.427s-0.729-0.16-0.978-0.427l-4.889-5.333c-0.213-0.249-0.356-0.551-0.356-0.907 0-0.729 0.604-1.333 1.333-1.333z"></path>
</svg>
