<!-- Generated by IcoMoon.io -->
<svg version="1.1" xmlns="http://www.w3.org/2000/svg" width="32" height="32" viewBox="0 0 32 32">
<title>No-changes</title>
<path d="M0 16.941c0-8.32 6.739-15.059 15.059-15.059s15.059 6.739 15.059 15.059c0 8.32-6.739 15.059-15.059 15.059s-15.059-6.739-15.059-15.059zM27.294 16.941c0-6.739-5.496-12.235-12.235-12.235s-12.235 5.496-12.235 12.235c0 6.739 5.496 12.235 12.235 12.235s12.235-5.496 12.235-12.235zM11.294 22.118c0-0.414 0.188-0.772 0.452-1.035v0l4.518-4.141-4.518-4.141c-0.264-0.264-0.452-0.621-0.452-1.035 0-0.772 0.64-1.412 1.412-1.412 0.376 0 0.696 0.151 0.96 0.376v0l5.647 5.176c0.282 0.264 0.452 0.64 0.452 1.035s-0.169 0.772-0.452 1.035l-5.647 5.176c-0.264 0.226-0.584 0.376-0.96 0.376-0.772 0-1.412-0.64-1.412-1.412z"></path>
</svg>
