<!-- Generated by IcoMoon.io -->
<svg version="1.1" xmlns="http://www.w3.org/2000/svg" width="28" height="32" viewBox="0 0 28 32">
<title>Notifications</title>
<path d="M25.612 22.649c-1.884-1.6-3.224-5.867-3.224-10.868 0-3.793-2.465-7.004-5.89-8.178-0.225-1.375-1.422-2.418-2.868-2.418s-2.643 1.043-2.868 2.418c-3.425 1.173-5.89 4.385-5.89 8.178 0 5.001-1.339 9.268-3.224 10.868-1.043 0.901-1.647 2.204-1.647 3.567 0 1.6 1.304 2.892 2.916 2.892h7.799c0 1.6 1.304 2.892 2.916 2.892s2.916-1.292 2.916-2.892h7.799c1.612 0 2.916-1.292 2.916-2.892 0-1.363-0.604-2.667-1.647-3.567zM2.916 26.216c0-0.521 0.237-1.031 0.64-1.375 2.607-2.24 4.231-7.241 4.231-13.061 0-3.188 2.619-5.784 5.843-5.784s5.843 2.596 5.843 5.784c0 5.819 1.624 10.821 4.231 13.061 0.403 0.344 0.64 0.853 0.64 1.375h-21.428z"></path>
</svg>
