<!-- Generated by IcoMoon.io -->
<svg version="1.1" xmlns="http://www.w3.org/2000/svg" width="30" height="32" viewBox="0 0 30 32">
<title>Settings</title>
<path d="M28.235 18.824h-1.092c-0.32 1.976-1.092 3.784-2.221 5.327l0.885 0.866c0.358 0.376 0.546 0.847 0.546 1.336 0 0.471-0.188 0.96-0.546 1.336-0.376 0.358-0.847 0.546-1.336 0.546s-0.96-0.188-1.336-0.546l-0.866-0.885c-1.544 1.129-3.351 1.901-5.327 2.202v1.111c0 1.035-0.847 1.882-1.882 1.882s-1.882-0.847-1.882-1.882v-1.111c-1.976-0.301-3.784-1.073-5.327-2.202l-0.866 0.885c-0.376 0.358-0.847 0.546-1.336 0.546s-0.96-0.188-1.336-0.546c-0.358-0.376-0.546-0.847-0.546-1.336 0-0.471 0.188-0.96 0.546-1.336l0.885-0.866c-1.129-1.544-1.901-3.351-2.221-5.327h-1.092c-1.035 0-1.882-0.847-1.882-1.882s0.847-1.882 1.882-1.882h1.092c0.32-1.976 1.092-3.784 2.221-5.327l-0.885-0.866c-0.358-0.376-0.546-0.847-0.546-1.336s0.188-0.96 0.546-1.336c0.376-0.358 0.847-0.546 1.336-0.546s0.96 0.188 1.336 0.546l0.866 0.885c1.544-1.129 3.351-1.901 5.327-2.221v-1.092c0-1.035 0.847-1.882 1.882-1.882s1.882 0.847 1.882 1.882v1.092c1.976 0.32 3.784 1.092 5.327 2.221l0.866-0.885c0.376-0.358 0.847-0.546 1.336-0.546s0.96 0.188 1.336 0.546c0.358 0.376 0.546 0.847 0.546 1.336s-0.188 0.96-0.546 1.336l-0.885 0.866c1.129 1.544 1.901 3.351 2.221 5.327h1.092c1.035 0 1.882 0.847 1.882 1.882s-0.847 1.882-1.882 1.882zM15.059 7.529c-5.195 0-9.412 4.216-9.412 9.412s4.216 9.412 9.412 9.412c5.195 0 9.412-4.216 9.412-9.412s-4.216-9.412-9.412-9.412zM15.059 22.588c-3.125 0-5.647-2.522-5.647-5.647s2.522-5.647 5.647-5.647c3.125 0 5.647 2.522 5.647 5.647s-2.522 5.647-5.647 5.647zM15.059 14.118c-1.562 0-2.824 1.261-2.824 2.824s1.261 2.824 2.824 2.824c1.562 0 2.824-1.261 2.824-2.824s-1.261-2.824-2.824-2.824z"></path>
</svg>
