<!-- Generated by IcoMoon.io -->
<svg version="1.1" xmlns="http://www.w3.org/2000/svg" width="27" height="32" viewBox="0 0 27 32">
<title>Sign-Out</title>
<path d="M24.242 32h-22.303c-1.067 0-1.939-0.873-1.939-1.939v-17.455c0-1.067 0.873-1.939 1.939-1.939h5.333c0.805 0 1.455 0.65 1.455 1.455s-0.65 1.455-1.455 1.455h-4.364v15.515h20.364v-15.515h-4.364c-0.805 0-1.455-0.65-1.455-1.455s0.65-1.455 1.455-1.455h5.333c1.067 0 1.939 0.873 1.939 1.939v17.455c0 1.067-0.873 1.939-1.939 1.939zM17.939 8.727c-0.398 0-0.766-0.165-1.028-0.427l-2.366-2.366v15.884c0 0.805-0.65 1.455-1.455 1.455s-1.455-0.65-1.455-1.455v-15.884l-2.366 2.366c-0.262 0.262-0.63 0.427-1.028 0.427-0.805 0-1.455-0.65-1.455-1.455 0-0.398 0.165-0.766 0.427-1.028l4.848-4.848c0.262-0.262 0.63-0.427 1.028-0.427s0.766 0.165 1.028 0.427l4.849 4.848c0.262 0.262 0.427 0.63 0.427 1.028 0 0.805-0.65 1.455-1.455 1.455z"></path>
</svg>
