<!-- Generated by IcoMoon.io -->
<svg version="1.1" xmlns="http://www.w3.org/2000/svg" width="46" height="32" viewBox="0 0 46 32">
<title>Stats</title>
<path d="M43.269 14.034l-5.12-10.697c-0.297-0.617-0.96-1.051-1.76-1.051-0.914 0-1.669 0.594-1.874 1.394l-5.051 20.663-6.629-14.994c-0.297-0.64-0.983-1.097-1.783-1.097s-1.463 0.434-1.76 1.074l-6.034 13.097-3.269-6.080c-0.32-0.594-0.96-0.983-1.714-0.983-0.594 0-1.12 0.251-1.463 0.64l-6.377 7.131c-0.274 0.32-0.434 0.709-0.434 1.143 0 0.983 0.869 1.783 1.92 1.783 0.594 0 1.12-0.251 1.463-0.64l4.503-5.029 3.794 7.063c0.32 0.594 0.96 0.983 1.714 0.983 0.8 0 1.463-0.434 1.76-1.074l5.874-12.731 7.2 16.274c0.297 0.64 0.983 1.097 1.783 1.097 0.914 0 1.669-0.594 1.874-1.394l5.12-20.914 2.766 5.783c0.297 0.617 0.96 1.051 1.76 1.051 1.051 0 1.92-0.8 1.92-1.783 0-0.251-0.069-0.503-0.16-0.731z"></path>
</svg>
