<!-- Generated by IcoMoon.io -->
<svg version="1.1" xmlns="http://www.w3.org/2000/svg" width="30" height="32" viewBox="0 0 30 32">
<title>Teams</title>
<path d="M22.809 18.4c1.084-1.742 1.724-3.893 1.724-6.24 0-5.724-3.822-10.382-8.533-10.382s-8.533 4.658-8.533 10.382c0 2.347 0.64 4.498 1.724 6.24-4.409 2.080-7.413 6.116-7.413 10.773v0.942c0 1.031 0.853 1.884 1.902 1.884h24.64c1.049 0 1.902-0.853 1.902-1.884v-0.942c0-4.658-3.004-8.693-7.413-10.773zM16 4.604c3.076 0 5.689 3.467 5.689 7.556 0 4.107-2.613 7.556-5.689 7.556s-5.689-3.449-5.689-7.556c0-4.089 2.613-7.556 5.689-7.556zM4.622 29.173c0-3.751 2.649-6.987 6.471-8.516 1.387 1.191 3.076 1.902 4.907 1.902s3.52-0.711 4.907-1.902c3.822 1.529 6.471 4.764 6.471 8.516h-22.756z"></path>
</svg>
