<!-- Generated by IcoMoon.io -->
<svg version="1.1" xmlns="http://www.w3.org/2000/svg" width="32" height="32" viewBox="0 0 32 32">
<title>Up</title>
<path d="M16.941 32c-8.32 0-15.059-6.739-15.059-15.059s6.739-15.059 15.059-15.059c8.32 0 15.059 6.739 15.059 15.059s-6.739 15.059-15.059 15.059zM16.941 4.706c-6.739 0-12.235 5.496-12.235 12.235s5.496 12.235 12.235 12.235c6.739 0 12.235-5.496 12.235-12.235s-5.496-12.235-12.235-12.235zM22.118 20.706c-0.414 0-0.772-0.188-1.035-0.452v0l-4.141-4.518-4.141 4.518c-0.264 0.264-0.621 0.452-1.035 0.452-0.772 0-1.412-0.64-1.412-1.412 0-0.376 0.151-0.696 0.376-0.96v0l5.176-5.647c0.264-0.282 0.64-0.452 1.035-0.452s0.772 0.169 1.035 0.452l5.176 5.647c0.226 0.264 0.376 0.584 0.376 0.96 0 0.772-0.64 1.412-1.412 1.412z"></path>
</svg>
