<!-- Generated by IcoMoon.io -->
<svg version="1.1" xmlns="http://www.w3.org/2000/svg" width="40" height="32" viewBox="0 0 40 32">
<title>Views</title>
<path d="M19.862 32c-10.968 0-18.759-9.931-19.862-15.448 1.103-5.517 8.894-15.448 19.862-15.448s18.759 9.931 19.862 15.448c-1.103 5.517-8.894 15.448-19.862 15.448zM19.862 4.414c-8.662 0-15.106 7.658-16.452 12.138 1.346 4.48 7.79 12.138 16.452 12.138s15.106-7.658 16.452-12.138c-1.346-4.48-7.79-12.138-16.452-12.138zM19.862 23.172c-3.652 0-6.621-2.968-6.621-6.621s2.968-6.621 6.621-6.621c3.652 0 6.621 2.968 6.621 6.621s-2.968 6.621-6.621 6.621zM19.862 13.241c-1.821 0-3.31 1.49-3.31 3.31s1.49 3.31 3.31 3.31c1.821 0 3.31-1.49 3.31-3.31s-1.49-3.31-3.31-3.31z"></path>
</svg>
